<svg width="16" height="18" viewBox="0 0 16 18" fill="none" xmlns="http://www.w3.org/2000/svg">
<path d="M0.857422 4.83315H15.1431M5.02409 4.83315V4.23791C5.02409 3.44857 5.33765 2.69157 5.89579 2.13342C6.45394 1.57528 7.21094 1.26172 8.00028 1.26172C8.78961 1.26172 9.54662 1.57528 10.1048 2.13342C10.6629 2.69157 10.9765 3.44857 10.9765 4.23791V4.83315M6.21456 7.2141V13.7617M9.78599 7.2141V13.7617M2.64314 4.83315H13.3574V15.5474C13.3574 15.8632 13.232 16.166 13.0087 16.3892C12.7855 16.6125 12.4827 16.7379 12.1669 16.7379H3.83361C3.51788 16.7379 3.21508 16.6125 2.99182 16.3892C2.76856 16.166 2.64314 15.8632 2.64314 15.5474V4.83315Z" stroke="#E5E5E7" stroke-linecap="round" stroke-linejoin="round"/>
</svg>
