<svg width="18" height="18" viewBox="0 0 18 18" fill="none" xmlns="http://www.w3.org/2000/svg">
<path d="M14.9522 11.977V15.5485C14.9522 15.8642 14.8268 16.167 14.6035 16.3903C14.3803 16.6135 14.0775 16.739 13.7617 16.739H2.4522C2.13646 16.739 1.83366 16.6135 1.6104 16.3903C1.38714 16.167 1.26172 15.8642 1.26172 15.5485V4.23895C1.26172 3.92322 1.38714 3.62042 1.6104 3.39716C1.83366 3.1739 2.13646 3.04848 2.4522 3.04848H6.02362M9.59505 11.3818L6.02362 12.0247L6.61886 8.40562L13.4403 1.608C13.551 1.49642 13.6826 1.40785 13.8277 1.34742C13.9728 1.28698 14.1284 1.25586 14.2855 1.25586C14.4427 1.25586 14.5983 1.28698 14.7434 1.34742C14.8884 1.40785 15.0201 1.49642 15.1308 1.608L16.3927 2.86991C16.5043 2.98058 16.5928 3.11224 16.6533 3.25731C16.7137 3.40238 16.7448 3.55799 16.7448 3.71514C16.7448 3.8723 16.7137 4.0279 16.6533 4.17297C16.5928 4.31804 16.5043 4.44971 16.3927 4.56038L9.59505 11.3818Z" stroke="#E5E5E7" stroke-linecap="round" stroke-linejoin="round"/>
</svg>
