<svg width="24" height="24" viewBox="0 0 24 24" fill="none" xmlns="http://www.w3.org/2000/svg">
<path d="M19.1424 15.5705V19.8562C19.1424 20.2351 18.9919 20.5985 18.724 20.8664C18.4561 21.1343 18.0927 21.2848 17.7139 21.2848H4.14244C3.76356 21.2848 3.4002 21.1343 3.13229 20.8664C2.86438 20.5985 2.71387 20.2351 2.71387 19.8562V6.28479C2.71387 5.90591 2.86438 5.54255 3.13229 5.27464C3.4002 5.00673 3.76356 4.85622 4.14244 4.85622H8.42815M12.7139 14.8562L8.42815 15.6276L9.14244 11.2848L17.3282 3.12765C17.461 2.99375 17.619 2.88747 17.793 2.81495C17.9671 2.74242 18.1538 2.70508 18.3424 2.70508C18.531 2.70508 18.7177 2.74242 18.8918 2.81495C19.0659 2.88747 19.2239 2.99375 19.3567 3.12765L20.871 4.64193C21.0049 4.77474 21.1112 4.93274 21.1837 5.10682C21.2562 5.28091 21.2936 5.46763 21.2936 5.65622C21.2936 5.84481 21.2562 6.03153 21.1837 6.20561C21.1112 6.3797 21.0049 6.5377 20.871 6.6705L12.7139 14.8562Z" stroke="#E5E5E7" stroke-width="1.5" stroke-linecap="round" stroke-linejoin="round"/>
</svg>
