<svg width="24" height="24" viewBox="0 0 24 24" fill="none" xmlns="http://www.w3.org/2000/svg">
<path d="M7.67863 13.3688L10.7024 18.2021C10.8196 18.3932 10.9843 18.5506 11.1804 18.6591C11.3765 18.7676 11.5974 18.8234 11.8215 18.8212C11.998 18.8275 12.174 18.7985 12.339 18.7357C12.5041 18.6729 12.6549 18.5776 12.7826 18.4555C12.9102 18.3334 13.012 18.187 13.0821 18.0249C13.1522 17.8628 13.1891 17.6883 13.1905 17.5116V14.0474H18.4167C18.6098 14.0411 18.7994 13.994 18.9731 13.9092C19.1467 13.8245 19.3004 13.7039 19.4241 13.5555C19.5478 13.407 19.6386 13.2341 19.6907 13.048C19.7428 12.862 19.7549 12.667 19.7262 12.4759L18.7739 6.33307C18.7332 6.00478 18.5741 5.70264 18.3264 5.48341C18.0787 5.26419 17.7594 5.14299 17.4286 5.1426H9.61911C9.24734 5.14114 8.8804 5.22676 8.54768 5.3926L7.69053 5.82117" fill="#C9C9CF"/>
<path d="M4.8572 5.85688H7.67863V13.3688H4.8572C4.69933 13.3688 4.54793 13.3061 4.4363 13.1944C4.32468 13.0828 4.26196 12.9314 4.26196 12.7735V6.45212C4.26196 6.29425 4.32468 6.14285 4.4363 6.03122C4.54793 5.91959 4.69933 5.85688 4.8572 5.85688Z" fill="#C9C9CF"/>
<path d="M7.67863 13.3688L10.7024 18.2021C10.8196 18.3932 10.9843 18.5506 11.1804 18.6591C11.3765 18.7676 11.5974 18.8234 11.8215 18.8212C11.998 18.8275 12.174 18.7985 12.339 18.7357C12.5041 18.6729 12.6549 18.5776 12.7826 18.4555C12.9102 18.3334 13.012 18.187 13.0821 18.0249C13.1522 17.8628 13.1891 17.6883 13.1905 17.5116V14.0474H18.4167C18.6098 14.0411 18.7994 13.994 18.9731 13.9092C19.1467 13.8245 19.3004 13.7039 19.4241 13.5555C19.5478 13.407 19.6386 13.2341 19.6907 13.048C19.7428 12.862 19.7549 12.667 19.7262 12.4759L18.7739 6.33307C18.7332 6.00478 18.5741 5.70264 18.3264 5.48341C18.0787 5.26419 17.7594 5.14299 17.4286 5.1426H9.61911C9.24734 5.14114 8.8804 5.22676 8.54768 5.3926L7.69053 5.82117M7.67863 13.3688V5.85688H4.8572C4.69933 5.85688 4.54793 5.91959 4.4363 6.03122C4.32468 6.14285 4.26196 6.29425 4.26196 6.45212V12.7735C4.26196 12.9314 4.32468 13.0828 4.4363 13.1944C4.54793 13.3061 4.69933 13.3688 4.8572 13.3688H7.67863Z" stroke="#C9C9CF" stroke-linecap="round" stroke-linejoin="round"/>
</svg>
