<svg width="20" height="20" viewBox="0 0 20 20" fill="none" xmlns="http://www.w3.org/2000/svg">
<path d="M5.67857 8.63098L8.70238 3.79764C8.81957 3.6066 8.98423 3.44917 9.18034 3.34069C9.37645 3.2322 9.59732 3.17636 9.82143 3.17859C9.99793 3.17222 10.1739 3.2013 10.339 3.2641C10.5041 3.32691 10.6549 3.42216 10.7825 3.54424C10.9101 3.66632 11.012 3.81275 11.0821 3.97487C11.1521 4.13699 11.189 4.31151 11.1905 4.48812V7.9524H16.4167C16.6098 7.95867 16.7994 8.00573 16.973 8.09051C17.1466 8.17529 17.3003 8.29586 17.424 8.44429C17.5477 8.59272 17.6386 8.76565 17.6907 8.95171C17.7427 9.13778 17.7549 9.33276 17.7262 9.52383L16.7738 15.6667C16.7332 15.995 16.5741 16.2971 16.3263 16.5163C16.0786 16.7356 15.7594 16.8568 15.4286 16.8572H7.61904C7.24728 16.8586 6.88034 16.773 6.54762 16.6072L5.69047 16.1786M5.67857 8.63098V16.1429H2.85714C2.69927 16.1429 2.54787 16.0802 2.43624 15.9685C2.32461 15.8569 2.2619 15.7055 2.2619 15.5476V9.22621C2.2619 9.06835 2.32461 8.91695 2.43624 8.80532C2.54787 8.69369 2.69927 8.63097 2.85714 8.63097L5.67857 8.63098Z" stroke="#E5E5E7" stroke-width="1.5" stroke-linecap="round" stroke-linejoin="round"/>
</svg>
