<svg width="24" height="24" viewBox="0 0 24 24" fill="none" xmlns="http://www.w3.org/2000/svg">
<g clip-path="url(#clip0_2499_5505)">
<path fill-rule="evenodd" clip-rule="evenodd" d="M21.2858 11.9996C21.2858 17.1279 17.1284 21.2853 12.0001 21.2853C6.87171 21.2853 2.71436 17.1279 2.71436 11.9996C2.71436 6.87122 6.87171 2.71387 12.0001 2.71387C17.1284 2.71387 21.2858 6.87122 21.2858 11.9996ZM9.85679 8.42815H14.1425C14.9315 8.42815 15.5711 9.06775 15.5711 9.85672V14.1424C15.5711 14.9314 14.9315 15.571 14.1425 15.571H9.85679C9.06782 15.571 8.42822 14.9314 8.42822 14.1424V9.85672C8.42822 9.06775 9.06782 8.42815 9.85679 8.42815Z" fill="white"/>
</g>
<defs>
<clipPath id="clip0_2499_5505">
<rect width="20" height="20" fill="white" transform="translate(2 2)"/>
</clipPath>
</defs>
</svg>
