<svg width="24" height="24" viewBox="0 0 24 24" fill="none" xmlns="http://www.w3.org/2000/svg">
<path fill-rule="evenodd" clip-rule="evenodd" d="M20.8189 18.277L13.4054 4.11952C13.1316 3.59695 12.5904 3.26953 12.0004 3.26953C11.4104 3.26953 10.8692 3.59695 10.5954 4.11952L3.1811 18.277C2.92351 18.7688 2.94175 19.3594 3.22917 19.8344C3.5166 20.3093 4.0314 20.5994 4.58654 20.5993H19.4135C19.9686 20.5994 20.4834 20.3093 20.7708 19.8344C21.0583 19.3594 21.0765 18.7688 20.8189 18.277ZM11.2069 9.09487C11.2069 8.65683 11.562 8.30173 12 8.30173C12.438 8.30173 12.7931 8.65683 12.7931 9.09487V13.8537C12.7931 14.2917 12.438 14.6468 12 14.6468C11.562 14.6468 11.2069 14.2917 11.2069 13.8537V9.09487ZM12.0397 18.2239H12.0174C11.3675 18.2218 10.835 17.7074 10.8103 17.058C10.7987 16.744 10.9139 16.4385 11.1299 16.2103C11.3459 15.982 11.6446 15.8502 11.9588 15.8445H11.981C12.6308 15.8453 13.1642 16.3587 13.1897 17.008C13.2021 17.3228 13.0871 17.6292 12.8707 17.8581C12.6542 18.0869 12.3546 18.2188 12.0397 18.2239Z" fill="#F2F2F3"/>
</svg>
