<svg width="20" height="20" viewBox="0 0 20 20" fill="none" xmlns="http://www.w3.org/2000/svg">
<path d="M5.67857 11.3688L8.70238 16.2021C8.81957 16.3932 8.98423 16.5506 9.18034 16.6591C9.37645 16.7676 9.59732 16.8234 9.82143 16.8212C9.99793 16.8275 10.1739 16.7985 10.339 16.7357C10.5041 16.6729 10.6549 16.5776 10.7825 16.4555C10.9101 16.3334 11.012 16.187 11.0821 16.0249C11.1521 15.8628 11.189 15.6883 11.1905 15.5116V12.0474H16.4167C16.6098 12.0411 16.7994 11.994 16.973 11.9092C17.1466 11.8245 17.3003 11.7039 17.424 11.5555C17.5477 11.407 17.6386 11.2341 17.6907 11.048C17.7427 10.862 17.7549 10.667 17.7262 10.4759L16.7738 4.33307C16.7332 4.00478 16.5741 3.70264 16.3263 3.48341C16.0786 3.26419 15.7594 3.14299 15.4286 3.1426H7.61904C7.24728 3.14114 6.88034 3.22676 6.54762 3.3926L5.69047 3.82117M5.67857 11.3688V3.85688H2.85714C2.69927 3.85688 2.54787 3.91959 2.43624 4.03122C2.32461 4.14285 2.2619 4.29425 2.2619 4.45212V10.7735C2.2619 10.9314 2.32461 11.0828 2.43624 11.1944C2.54787 11.3061 2.69927 11.3688 2.85714 11.3688H5.67857Z" stroke="#E5E5E7" stroke-width="1.5" stroke-linecap="round" stroke-linejoin="round"/>
</svg>
