<svg width="24" height="24" viewBox="0 0 24 24" fill="none" xmlns="http://www.w3.org/2000/svg">
<path d="M20.9998 11.6609C21.0043 11.4906 20.9151 11.3391 20.7752 11.2793L3.7884 4.02583C3.65801 3.97067 3.50789 4.00541 3.40209 4.11524C3.29629 4.22507 3.2535 4.39059 3.29197 4.54118L4.81765 10.4567C4.83612 10.5363 4.89608 10.5937 4.96954 10.602L14.6257 11.5419C14.7201 11.5497 14.7907 11.637 14.7888 11.7435C14.7868 11.8499 14.7129 11.9406 14.6182 11.9527L4.91978 13.3354C4.84635 13.3457 4.7838 13.4041 4.76098 13.4837L3.01856 19.474C2.97581 19.621 3.00817 19.7792 3.10265 19.885L3.11234 19.8959C3.2141 20.0011 3.36302 20.0292 3.49556 19.9682L20.7591 12.0484C20.9007 11.9835 20.9961 11.8299 20.9998 11.6609Z" fill="white"/>
</svg>
