<svg width="18" height="18" viewBox="0 0 18 18" fill="none" xmlns="http://www.w3.org/2000/svg">
<path fill-rule="evenodd" clip-rule="evenodd" d="M9 0C4.02944 0 0 4.02944 0 9C0 13.9706 4.02944 18 9 18C13.9706 18 18 13.9706 18 9C17.9942 4.03184 13.9682 0.00578607 9 0ZM13.1175 12.057C13.3125 12.2453 13.3907 12.5242 13.322 12.7864C13.2534 13.0486 13.0486 13.2534 12.7864 13.322C12.5242 13.3907 12.2453 13.3125 12.057 13.1175L9.132 10.1925C9.0584 10.1199 8.9401 10.1199 8.8665 10.1925L5.9415 13.1175C5.64663 13.4054 5.17587 13.4054 4.881 13.1175C4.58821 12.8246 4.58821 12.3499 4.881 12.057L7.806 9.132C7.84122 9.09695 7.86102 9.04931 7.86102 8.99962C7.86102 8.94994 7.84122 8.9023 7.806 8.86725L4.881 5.94225C4.58836 5.64899 4.58886 5.17402 4.88213 4.88137C5.17539 4.58873 5.65036 4.58924 5.943 4.8825L8.868 7.8075C8.90318 7.84277 8.95094 7.86259 9.00075 7.86259C9.05056 7.86259 9.09832 7.84277 9.1335 7.8075L12.0585 4.8825C12.2451 4.68002 12.5277 4.5961 12.7946 4.66388C13.0615 4.73166 13.2698 4.94024 13.3372 5.20722C13.4046 5.47421 13.3202 5.75666 13.1175 5.943L10.1925 8.868C10.1573 8.90305 10.1375 8.95069 10.1375 9.00037C10.1375 9.05006 10.1573 9.0977 10.1925 9.13275L13.1175 12.057Z" fill="#DB696A"/>
</svg>
