<svg width="24" height="24" viewBox="0 0 24 24" fill="none" xmlns="http://www.w3.org/2000/svg">
<path d="M7.67863 10.631L10.7024 5.79764C10.8196 5.6066 10.9843 5.44917 11.1804 5.34069C11.3765 5.2322 11.5974 5.17636 11.8215 5.17859C11.998 5.17222 12.174 5.2013 12.339 5.2641C12.5041 5.32691 12.6549 5.42216 12.7826 5.54424C12.9102 5.66632 13.012 5.81275 13.0821 5.97487C13.1522 6.13699 13.1891 6.31151 13.1905 6.48812V9.9524H18.4167C18.6098 9.95867 18.7994 10.0057 18.9731 10.0905C19.1467 10.1753 19.3004 10.2959 19.4241 10.4443C19.5478 10.5927 19.6386 10.7657 19.6907 10.9517C19.7428 11.1378 19.7549 11.3328 19.7262 11.5238L18.7739 17.6667C18.7332 17.995 18.5741 18.2971 18.3264 18.5163C18.0787 18.7356 17.7594 18.8568 17.4286 18.8572H9.61911C9.24734 18.8586 8.8804 18.773 8.54768 18.6072L7.69053 18.1786" fill="#C9C9CF"/>
<path d="M4.8572 10.631L7.67863 10.631V18.1429H4.8572C4.69933 18.1429 4.54793 18.0802 4.4363 17.9685C4.32468 17.8569 4.26196 17.7055 4.26196 17.5476V11.2262C4.26196 11.0683 4.32468 10.9169 4.4363 10.8053C4.54793 10.6937 4.69933 10.631 4.8572 10.631Z" fill="#C9C9CF"/>
<path d="M7.67863 10.631L10.7024 5.79764C10.8196 5.6066 10.9843 5.44917 11.1804 5.34069C11.3765 5.2322 11.5974 5.17636 11.8215 5.17859C11.998 5.17222 12.174 5.2013 12.339 5.2641C12.5041 5.32691 12.6549 5.42216 12.7826 5.54424C12.9102 5.66632 13.012 5.81275 13.0821 5.97487C13.1522 6.13699 13.1891 6.31151 13.1905 6.48812V9.9524H18.4167C18.6098 9.95867 18.7994 10.0057 18.9731 10.0905C19.1467 10.1753 19.3004 10.2959 19.4241 10.4443C19.5478 10.5927 19.6386 10.7657 19.6907 10.9517C19.7428 11.1378 19.7549 11.3328 19.7262 11.5238L18.7739 17.6667C18.7332 17.995 18.5741 18.2971 18.3264 18.5163C18.0787 18.7356 17.7594 18.8568 17.4286 18.8572H9.61911C9.24734 18.8586 8.8804 18.773 8.54768 18.6072L7.69053 18.1786M7.67863 10.631V18.1429H4.8572C4.69933 18.1429 4.54793 18.0802 4.4363 17.9685C4.32468 17.8569 4.26196 17.7055 4.26196 17.5476V11.2262C4.26196 11.0683 4.32468 10.9169 4.4363 10.8053C4.54793 10.6937 4.69933 10.631 4.8572 10.631L7.67863 10.631Z" stroke="#C9C9CF" stroke-linecap="round" stroke-linejoin="round"/>
</svg>
