<svg width="20" height="20" viewBox="0 0 20 20" fill="none" xmlns="http://www.w3.org/2000/svg">
<path d="M12.8846 7.11538V3.65385C12.8846 3.025 12.3596 2.5 11.7308 2.5H3.65385C3.025 2.5 2.5 3.025 2.5 3.65385V11.7308C2.5 12.3596 3.025 12.8846 3.65385 12.8846H7.11538M16.3462 17.5C16.6522 17.5 16.9457 17.3784 17.162 17.162C17.3784 16.9457 17.5 16.6522 17.5 16.3462V8.26923C17.5 7.64038 16.975 7.11538 16.3462 7.11538H8.26923C7.64038 7.11538 7.11538 7.64038 7.11538 8.26923V16.3462C7.11538 16.975 7.64038 17.5 8.26923 17.5H16.3462Z" stroke="#E5E5E7" stroke-width="1.5" stroke-linecap="round" stroke-linejoin="round"/>
</svg>
