<svg width="66" height="36" viewBox="0 0 66 36" fill="none" xmlns="http://www.w3.org/2000/svg">
<g clip-path="url(#clip0_2315_11917)">
<path d="M15.8192 3.85944V11.6401C15.8192 11.8408 15.7373 12.0333 15.5913 12.1755C15.4453 12.3177 15.2472 12.3981 15.0403 12.399H13.9634C13.8604 12.3995 13.7582 12.3802 13.6629 12.3422C13.5675 12.3043 13.4808 12.2485 13.4078 12.178C13.3347 12.1074 13.2768 12.0236 13.2372 11.9313C13.1977 11.839 13.1773 11.7401 13.1773 11.6401V3.85944C13.1768 3.75994 13.1966 3.66133 13.2356 3.56927C13.2745 3.47722 13.3318 3.39353 13.4042 3.32301C13.4766 3.25249 13.5626 3.19653 13.6573 3.15835C13.7521 3.12017 13.8537 3.10051 13.9563 3.10052H15.0331C15.1363 3.09959 15.2387 3.11857 15.3343 3.15634C15.4298 3.1941 15.5167 3.24991 15.5898 3.32053C15.663 3.39114 15.7209 3.47514 15.7603 3.56765C15.7997 3.66017 15.8197 3.75935 15.8192 3.85944ZM11.1528 3.10052C10.8291 3.10283 10.5128 3.19483 10.2413 3.36568C9.96972 3.53654 9.75418 3.77911 9.62005 4.06483L6.74839 9.98301C6.68019 10.1223 6.54738 10.3485 6.43251 10.3485C6.31765 10.3485 6.18483 10.1223 6.11663 9.98301L3.21985 4.06483C3.0847 3.77697 2.86693 3.53294 2.59257 3.36193C2.31821 3.19092 1.99888 3.10017 1.67274 3.10052H0L4.56594 11.6749C5.01822 12.5174 5.94433 12.5 6.41815 12.5C7.07505 12.5 7.85398 12.4652 8.24884 11.6749L12.8148 3.10052H11.1528ZM61.5863 1.67667C61.5863 1.476 61.5043 1.28349 61.3583 1.14126C61.2124 0.999038 61.0143 0.918674 60.8073 0.917754H59.7305C59.5236 0.918674 59.3254 0.999038 59.1795 1.14126C59.0335 1.28349 58.9515 1.476 58.9515 1.67667V9.35986C58.9515 10.5365 59.3787 11.2189 60.1469 11.7097C60.915 12.2006 61.7514 12.406 63.3559 12.406H64.2282C64.4351 12.4032 64.6325 12.3211 64.7771 12.1776C64.9218 12.034 65.0019 11.8408 65 11.6401V10.815H64.3431C63.8692 10.815 62.8749 10.7976 62.2898 10.4112C61.5181 9.92034 61.5719 9.04654 61.5719 8.41295L61.5863 1.67667ZM44.6579 10.815C44.184 10.815 43.1897 10.7976 42.601 10.4112C41.8329 9.92034 41.8831 9.04654 41.8831 8.41295V4.67754H44.4497C44.6562 4.67754 44.8544 4.59795 45.0005 4.45627C45.1465 4.3146 45.2286 4.12245 45.2286 3.9221V3.10052H41.8831V1.67667C41.8831 1.476 41.8012 1.28349 41.6552 1.14126C41.5092 0.999038 41.3111 0.918674 41.1042 0.917754H40.0273C39.8204 0.918674 39.6223 0.999038 39.4763 1.14126C39.3303 1.28349 39.2484 1.476 39.2484 1.67667V3.10052H33.742V1.67667C33.742 1.476 33.66 1.28349 33.514 1.14126C33.3681 0.999038 33.17 0.918674 32.963 0.917754H31.8862C31.6792 0.918674 31.4811 0.999038 31.3352 1.14126C31.1892 1.28349 31.1072 1.476 31.1072 1.67667V3.10052H29.4345V3.9221C29.4345 4.02279 29.4552 4.12246 29.4954 4.21527C29.5357 4.30808 29.5947 4.39214 29.6689 4.46252C29.7432 4.5329 29.8312 4.58818 29.9278 4.62511C30.0244 4.66203 30.1276 4.67986 30.2314 4.67754H31.1V9.35986C31.1 10.5365 31.5272 11.2189 32.2954 11.7097C33.0635 12.2006 33.8999 12.406 35.526 12.406H36.3947C36.5997 12.4005 36.7943 12.3172 36.9366 12.174C37.079 12.0307 37.1576 11.839 37.1557 11.6401V10.815H36.5024C36.0249 10.815 35.0306 10.7976 34.4455 10.4112C33.6774 9.92034 33.7276 9.04654 33.7276 8.41295V4.67754H39.2448V9.35986C39.2448 10.5365 39.6719 11.2189 40.4401 11.7097C41.2083 12.2006 42.0447 12.406 43.6492 12.406H44.5215C44.6257 12.4074 44.7292 12.3885 44.8259 12.3506C44.9226 12.3126 45.0104 12.2563 45.0843 12.185C45.1582 12.1136 45.2167 12.0287 45.2563 11.9351C45.2958 11.8415 45.3157 11.7412 45.3148 11.6401V10.815H44.6579ZM15.0403 0.5H13.9634C13.7568 0.5 13.5587 0.579591 13.4126 0.721263C13.2666 0.862935 13.1845 1.05508 13.1845 1.25544V3.10052C13.27 2.83368 13.4468 2.60309 13.6857 2.44677C13.9245 2.29045 14.2111 2.21775 14.4983 2.24064H15.0403C15.1426 2.24064 15.2439 2.2211 15.3384 2.18314C15.4329 2.14517 15.5188 2.08953 15.5911 2.01938C15.6634 1.94923 15.7208 1.86595 15.7599 1.7743C15.7991 1.68264 15.8192 1.58441 15.8192 1.4852V1.25544C15.8192 1.05508 15.7372 0.862935 15.5911 0.721263C15.445 0.579591 15.2469 0.5 15.0403 0.5ZM28.4761 11.6401V10.815H22.6143C21.6415 10.815 20.5323 10.7106 20.1949 9.71147C20.0906 9.29192 20.0376 8.86193 20.037 8.43036H27.0079C27.4659 8.46097 27.9209 8.33807 28.2966 8.08223C28.4961 7.90889 28.651 7.69266 28.7488 7.45085C28.8467 7.20905 28.8848 6.94838 28.8602 6.68972C28.8602 5.51304 28.5658 4.35726 27.1659 3.67145C26.0603 3.12837 24.6137 3.07615 23.2173 3.07615C22.0866 3.07615 20.0549 3.07615 18.7447 3.95343C17.4345 4.83071 17.3089 6.10834 17.3089 7.8455C17.3089 9.07439 17.3771 10.352 18.1668 11.2293C19.1611 12.3155 20.6077 12.406 21.8282 12.406H27.6971C27.8002 12.4055 27.9022 12.3853 27.9972 12.3465C28.0922 12.3078 28.1783 12.2512 28.2507 12.18C28.3231 12.1088 28.3802 12.0245 28.4189 11.9319C28.4576 11.8392 28.477 11.7401 28.4761 11.6401ZM26.1285 6.31374C26.1285 6.55743 26.0603 6.85682 25.5398 6.85682H21.7779C20.8231 6.85682 20.0478 7.28153 20.0478 7.80373V6.85334C20.0693 6.24063 20.0478 5.73236 20.5898 5.25891C21.3077 4.62532 22.3846 4.64272 23.1025 4.64272C23.8204 4.64272 24.707 4.67754 25.3603 5.06396C25.5864 5.19192 25.7754 5.37332 25.9098 5.59124C26.0441 5.80917 26.1193 6.05652 26.1285 6.31026V6.31374ZM57.0742 11.6401V10.815H51.2124C50.2432 10.815 49.1341 10.7106 48.7966 9.71147C48.6906 9.29223 48.6375 8.86203 48.6387 8.43036H55.5989C56.0569 8.46097 56.5118 8.33807 56.8875 8.08223C57.087 7.90889 57.2419 7.69266 57.3397 7.45085C57.4376 7.20905 57.4757 6.94838 57.4511 6.68972C57.4511 5.51304 57.1567 4.35726 55.7568 3.67145C54.6476 3.12837 53.201 3.07615 51.8083 3.07615C50.6776 3.07615 48.6459 3.07615 47.3321 3.95343C46.0183 4.83071 45.8963 6.10834 45.8963 7.8455C45.8963 9.07439 45.9645 10.352 46.7542 11.2293C47.7485 12.3155 49.1951 12.406 50.4155 12.406H56.2809C56.3852 12.4074 56.4887 12.3885 56.5853 12.3506C56.682 12.3126 56.7699 12.2563 56.8438 12.185C56.9177 12.1136 56.9761 12.0287 57.0157 11.9351C57.0553 11.8415 57.0752 11.7412 57.0742 11.6401ZM54.723 6.31374C54.723 6.55743 54.6548 6.85682 54.1379 6.85682H50.3689C49.4105 6.85682 48.6387 7.28153 48.6387 7.80373V6.85334C48.6602 6.24063 48.6387 5.73236 49.1807 5.25891C49.8986 4.62532 50.9755 4.64272 51.6934 4.64272C52.4113 4.64272 53.298 4.67754 53.9513 5.06396C54.1769 5.1921 54.3654 5.37362 54.4991 5.59157C54.6328 5.80952 54.7074 6.05678 54.7158 6.31026L54.723 6.31374Z" fill="#FF0022"/>
<path d="M63.7016 35.5C60.8487 35.5 58.7793 35.5 58.7793 35.5C56.223 35.5 54.4352 34.8371 53.4158 33.5114C52.4115 32.1857 51.9094 30.1819 51.9094 27.5C51.9094 24.8181 52.4115 22.8143 53.4158 21.4886C54.4352 20.1629 56.223 19.5 58.7793 19.5C58.7793 19.5 60.3923 19.5 63.4733 19.5C65.6778 19.5 65.7013 21.1381 65.5363 22.0703C65.468 22.4562 65.1205 22.7 64.7359 22.7H60.8105C58.9695 22.7 57.7218 23.02 57.0675 23.66C56.4285 24.3 56.1089 25.58 56.1089 27.5C56.1089 29.42 56.4285 30.7 57.0675 31.34C57.7218 31.98 58.9695 32.3 60.8105 32.3H64.9186C65.3253 32.3 65.6867 32.5721 65.7311 32.9843C65.8323 33.9243 65.7034 35.5 63.7016 35.5Z" fill="#F2F2F3"/>
<path d="M38.0918 19.8352C39.1448 19.6117 40.5199 19.5 42.2171 19.5C43.9144 19.5 45.2895 19.6117 46.3424 19.8352C47.3954 20.0587 48.2833 20.4683 49.0062 21.0642C49.7448 21.6601 50.2556 22.4721 50.5385 23.5C50.8371 24.5279 50.9864 25.8613 50.9864 27.5C50.9864 29.1387 50.8371 30.4721 50.5385 31.5C50.2556 32.5279 49.7448 33.3473 49.0062 33.9581C48.2833 34.554 47.3954 34.9637 46.3424 35.1872C45.2895 35.3957 43.9144 35.5 42.2171 35.5C40.5199 35.5 39.1448 35.3957 38.0918 35.1872C37.0389 34.9637 36.1431 34.554 35.4045 33.9581C34.6816 33.3473 34.1708 32.5279 33.8722 31.5C33.5893 30.4721 33.4479 29.1387 33.4479 27.5C33.4479 25.8613 33.5893 24.5279 33.8722 23.5C34.1708 22.4721 34.6816 21.6601 35.4045 21.0642C36.1431 20.4683 37.0389 20.0587 38.0918 19.8352ZM38.7047 23.6788C38.0918 24.3641 37.7854 25.6378 37.7854 27.5C37.7854 29.3622 38.0918 30.6434 38.7047 31.3436C39.3333 32.0289 40.5041 32.3715 42.2171 32.3715C43.9301 32.3715 45.0931 32.0289 45.706 31.3436C46.3346 30.6434 46.6489 29.3622 46.6489 27.5C46.6489 25.6378 46.3346 24.3641 45.706 23.6788C45.0931 22.9786 43.9301 22.6285 42.2171 22.6285C40.5041 22.6285 39.3333 22.9786 38.7047 23.6788Z" fill="#F2F2F3"/>
<path d="M18.8662 35.5C18.3564 35.5 17.9431 35.0786 17.9431 34.5588V33.2412C17.9431 32.7214 18.3564 32.3 18.8662 32.3H27.0391C27.3829 32.3 27.6486 32.2314 27.8362 32.0943C28.0237 31.9419 28.1331 31.8048 28.1644 31.6829C28.1956 31.5457 28.2113 31.3857 28.2113 31.2029C28.2113 30.5933 27.7893 30.159 26.9453 29.9L20.5219 28.0257C19.506 27.7362 18.7871 27.2181 18.3651 26.4714C17.9588 25.7248 17.7556 24.7495 17.7556 23.5457C17.7556 20.8486 19.0215 19.5 21.5534 19.5H30.7578C31.2676 19.5 31.6809 19.9214 31.6809 20.4412V21.7588C31.6809 22.2786 31.2676 22.7 30.7578 22.7H23.1944C22.4286 22.7 22.0457 23.0505 22.0457 23.7514C22.0457 24.3914 22.4833 24.841 23.3585 25.1L29.1256 26.7457C30.3602 27.0962 31.2354 27.6067 31.7512 28.2771C32.2669 28.9476 32.5248 29.9381 32.5248 31.2486C32.5248 34.0829 31.2745 35.5 28.7739 35.5H18.8662Z" fill="#F2F2F3"/>
<path d="M3.80258 19.5C4.01271 19.5 4.20042 19.6314 4.27236 19.8288L8.43498 31.2514C8.51132 31.4774 8.61819 31.5904 8.75559 31.5904C8.86246 31.5904 8.96933 31.4774 9.07621 31.2514L13.2388 19.8288C13.3108 19.6314 13.4985 19.5 13.7086 19.5H17.0095C17.3653 19.5 17.6072 19.861 17.472 20.1901L12.0533 33.3757C11.7785 34.0386 11.3968 34.5584 10.9083 34.935C10.4197 35.3117 9.70216 35.5 8.75559 35.5C7.12201 35.5 6.01514 34.7919 5.43498 33.3757L0.0377692 20.1894C-0.0968729 19.8604 0.145066 19.5 0.500508 19.5H3.80258Z" fill="#F2F2F3"/>
</g>
<defs>
<clipPath id="clip0_2315_11917">
<rect width="66" height="35" fill="white" transform="translate(0 0.5)"/>
</clipPath>
</defs>
</svg>
